# xmcd
#
# Track frame offsets:
#	182
#	10852
#	24990
#	35040
#	46927
#	59195
#	70482
#	84375
#	93040
#	104865
#	115795
#	125717
#	139090
#	150412
#	162030
#	175887
#	187080
#	205997
#	218680
#	237372
#	251747
#	267417
#	279350
#	304780
#
# Disc length: 4232 seconds
#
# Revision: 1
# Processed by: cddbd v1.4PL0 Copyright (c) Steve Scherf et al.
# Submitted via: EasyCDDAExtractor 5.1.0
#
DISCID=5c108618
DTITLE=Various Artist - Grand Strand Gold Volume III
DYEAR=1900
DGENRE=
TTITLE0=Embers - First Time
TTITLE1=Catalinas - Stubborn Kind Of Fellow
TTITLE2=Bob Meyer and The Rivieras - My Girl Stormy
TTITLE3=Sensational Epics - Be Young Be Foolish Be Happy
TTITLE4=Gene Barbour and The Cavaliers - Nobody
TTITLE5=Embers - A Fool In Love
TTITLE6=Catalinas - Hey Little Girl
TTITLE7=Bob Meyer and The Rivieras - Simple Day
TTITLE8=Villagers - Laugh It Off
TTITLE9=Sensational Epics - I've Been Hurt
TTITLE10=Bob Collins and The Fabulous Five - Inventory On Heartaches
TTITLE11=In Men LTD - Little Girl
TTITLE12=Billy Scott and Georgia Prophets - Nobody Loves Me Like You Do
TTITLE13=Showmen - In Paradise
TTITLE14=Benny Gordon - Gonna Give Her All The Love I've Got
TTITLE15=Groove - Love Is Gettin Better
TTITLE16=Catalinas - Facts Of Love
TTITLE17=Monzas - Hey I Know You
TTITLE18=Tom Grose and The Varsity - I'll Be Alright
TTITLE19=Dale Van Horn - She's Too Pretty To Cry
TTITLE20=Sammy O'Banion - Carolina
TTITLE21=Terri Gore and Kruze - Come And Get These Memories
TTITLE22=Terri Gore and Kruze - Willie Tee Tribute, The
TTITLE23=Bobby Smith and The Poor Souls - Carolina Home Of Rhythm And Blues
EXTD=
EXTT0=
EXTT1=
EXTT2=
EXTT3=
EXTT4=
EXTT5=
EXTT6=
EXTT7=
EXTT8=
EXTT9=
EXTT10=
EXTT11=
EXTT12=
EXTT13=
EXTT14=
EXTT15=
EXTT16=
EXTT17=
EXTT18=
EXTT19=
EXTT20=
EXTT21=
EXTT22=
EXTT23=
PLAYORDER=
